<svg id="vector" xmlns="http://www.w3.org/2000/svg" width="215.27284" height="121.09097" viewBox="0 0 215.27284 121.09097"><path fill="@color/mildWhite" d="m47.885,48.331c-5.292,-0.97 -10.407,3.175 -11.465,9.26 -0.97,5.997 2.381,11.642 7.585,12.524 5.292,0.882 10.407,-3.263 11.465,-9.26 0.97,-5.997 -2.381,-11.642 -7.585,-12.524z" stroke-width="0.26458299" stroke="#00000000" fill-rule="nonzero" id="path_0"/><path fill="@color/mildWhite" d="m184.851,57.767c-1.411,-2.734 -8.819,-12.876 -8.819,-12.876 0.882,-2.999 0.882,-2.999 0.882,-2.999 0,0 1.147,0 2.293,0 1.147,0 3.528,-0.353 5.468,-1.587 1.94,-1.235 3.351,-3.087 3.351,-4.939 0,-1.852 -2.293,-6.438 -8.467,-6.438 -6.262,0 -7.408,4.939 -7.408,6.791 0,1.94 0.441,2.469 0.441,2.469 -1.587,2.558 -1.587,2.558 -1.587,2.558 0,0 -4.057,-9.349 -8.026,-18.344 -4.233,-9.349 -7.673,-13.935 -7.761,-14.905 -0.265,-2.205 -6.085,-5.027 -11.73,-5.733 -5.556,-0.706 -35.278,-1.764 -35.807,-1.764 0,0 0,0 0,0 0,0 0,0 0,0 0,0 0,0 0,0 0,0 0,0 0,0 -0.529,0 -30.339,1.058 -35.895,1.764 -5.644,0.706 -11.465,3.528 -11.642,5.733 -0.176,0.97 -3.616,5.556 -7.761,14.905 -4.057,8.996 -8.114,18.344 -8.114,18.344 -1.587,-2.558 -1.587,-2.558 -1.587,-2.558 0,0 0.441,-0.529 0.441,-2.469 0,-1.852 -1.147,-6.791 -7.408,-6.791 -6.174,0 -8.467,4.586 -8.467,6.438 0,1.852 1.411,3.704 3.351,4.939 1.94,1.235 4.322,1.587 5.468,1.587 1.147,0 2.293,0 2.293,0 0.882,2.999 0.882,2.999 0.882,2.999 0,0 -7.408,10.142 -8.819,12.876 -0.97,1.852 -1.764,4.498 -2.028,8.29 -0.265,0.529 -0.353,1.235 -0.353,1.94 0,48.066 0,48.066 0,48.066 0,2.734 1.852,5.027 4.233,5.027 13.406,0 13.406,0 13.406,0 2.381,0 4.233,-2.293 4.233,-5.027 0,-0.088 0,-0.088 0,-0.088 0,0 0.088,0 0.088,0 4.939,0.441 57.15,0.441 57.679,0.441 0,0 0,0 0,0 0.529,0 52.652,0 57.591,-0.441 0.088,0 0.088,0 0.088,0 0,0.088 0,0.088 0,0.088 0,2.734 1.94,5.027 4.233,5.027 13.406,0 13.406,0 13.406,0 2.381,0 4.233,-2.293 4.233,-5.027 0,-48.066 0,-48.066 0,-48.066 0,-0.706 -0.088,-1.411 -0.353,-1.94 -0.265,-3.792 -1.058,-6.438 -2.028,-8.29zM63.319,6.879c0,0 9.79,-1.235 18.256,-1.587 8.29,-0.353 25.576,-0.529 26.106,-0.529 0,0 0,0 0,0 0,0 17.551,0.176 26.017,0.529 8.467,0.353 18.256,1.587 18.256,1.587 14.111,32.191 14.111,32.191 14.111,32.191 -6.174,0.794 -6.174,0.794 -6.174,0.794 0,0 -16.581,-3.087 -52.211,-3.087 0,0 0,0 0,0 -35.719,0 -52.299,3.087 -52.299,3.087 -6.174,-0.794 -6.174,-0.794 -6.174,-0.794zM124.085,48.507c0.882,0.176 1.235,0.441 0.706,1.235 -0.441,0.706 -0.441,1.147 -1.94,1.147 -1.411,0 -14.728,0 -15.169,0 0,0 0,0 0,0 -0.529,0 -13.847,0 -15.258,0 -1.499,0 -1.411,-0.441 -1.94,-1.147 -0.529,-0.794 -0.176,-1.058 0.706,-1.235 1.587,-0.353 8.819,-0.882 16.492,-0.882 0,0 0,0 0,0 7.673,0 14.817,0.529 16.404,0.882zM46.915,98.954c-2.999,0 -5.556,-2.558 -5.556,-5.556 0,-3.087 2.558,-5.556 5.556,-5.556 3.087,0 5.556,2.469 5.556,5.556 0,2.999 -2.469,5.556 -5.556,5.556zM57.674,62.265c-1.323,7.408 -7.585,12.524 -14.111,11.377 -6.526,-1.147 -10.672,-8.026 -9.437,-15.522 1.323,-7.408 7.673,-12.524 14.111,-11.377 6.526,1.147 10.76,8.114 9.437,15.522zM150.984,97.543c-0.529,1.852 -1.94,5.997 -5.203,7.408 -3.263,1.411 -14.288,2.293 -19.403,2.293 -5.115,0 -18.697,0.353 -18.697,0.353 0,0 0,0 0,0 -0.265,0 -13.758,-0.353 -18.785,-0.353 -5.115,0 -16.14,-0.882 -19.403,-2.293 -3.263,-1.411 -4.674,-5.556 -5.203,-7.408 -0.529,-1.852 -0.97,-3.881 0.794,-4.851 1.764,-0.97 9.79,-0.97 42.598,-0.97 0,0 0,0 0,0 32.72,0 40.746,0 42.51,0.97 1.764,0.97 1.323,2.999 0.794,4.851zM153.542,75.406c-0.441,1.499 -2.469,1.587 -2.469,1.587 -43.392,0 -43.392,0 -43.392,0 0,0 0,0 0,0 -43.48,0 -43.48,0 -43.48,0 0,0 -1.94,-0.088 -2.381,-1.587 -0.353,-1.147 -0.088,-1.587 0.706,-2.91 1.411,-2.028 3.792,-5.027 5.909,-6.615 2.028,-1.499 6.262,-2.293 8.202,-2.646 1.94,-0.353 5.909,-0.794 12.347,-1.235 6.438,-0.441 18.433,-0.176 18.697,-0.176 0,0 0,0 0,0 0,0 12.171,-0.265 18.609,0.176 6.438,0.441 10.407,0.882 12.347,1.235 1.94,0.353 6.174,1.147 8.29,2.646 2.028,1.587 4.41,4.586 5.821,6.615 0.882,1.323 1.058,1.764 0.794,2.91zM168.358,98.954c-3.087,0 -5.556,-2.558 -5.556,-5.556 0,-3.087 2.469,-5.556 5.556,-5.556 3.087,0 5.556,2.469 5.556,5.556 0,2.999 -2.469,5.556 -5.556,5.556zM171.71,73.642c-6.526,1.147 -12.788,-3.969 -14.111,-11.377 -1.323,-7.408 2.91,-14.376 9.437,-15.522 6.526,-1.147 12.788,3.969 14.111,11.377 1.323,7.497 -2.91,14.376 -9.437,15.522z" stroke-width="0.26458299" stroke="#00000000" fill-rule="nonzero" id="path_1"/><path fill="@color/mildWhite" d="m167.476,48.331c-5.292,0.882 -8.643,6.526 -7.585,12.524 1.058,5.997 6.085,10.142 11.377,9.26 5.203,-0.882 8.643,-6.526 7.585,-12.524 -1.058,-6.085 -6.174,-10.231 -11.377,-9.26z" stroke-width="0.26458299" stroke="#00000000" fill-rule="nonzero" id="path_2"/></svg>