<svg id="vector" xmlns="http://www.w3.org/2000/svg" width="24" height="24" viewBox="0 0 210 210"><path fill="#000000" fill-rule="nonzero" d="m70.584,88.137c-18.394,0 -32.256,17.738 -32.256,38.461v28.016h10v-28.016c0,-16.352 10.451,-28.461 22.256,-28.461h68.832c11.804,0 22.256,12.109 22.256,28.461v28.016h10v-28.016c0,-20.723 -13.862,-38.461 -32.256,-38.461z" stroke="#00000000" stroke-linecap="butt" stroke-linejoin="miter" stroke-width="10" id="path_0"/><path fill="#000000" d="m52.754,126.799c-0.217,-12.094 5.303,-23.282 12.476,-23.547 10.421,-0.384 11.135,3.205 11.135,3.205 -12.106,3.556 -16.205,7.93 -23.611,20.342z" stroke="#00000000" stroke-linecap="butt" stroke-linejoin="miter" stroke-width="1.96500003" id="path_1"/><path fill="#000000" d="m157.246,126.497c0.217,-12.094 -5.303,-23.282 -12.476,-23.547 -10.421,-0.384 -11.135,3.205 -11.135,3.205 12.106,3.556 16.205,7.93 23.611,20.342z" stroke="#00000000" stroke-linecap="butt" stroke-linejoin="miter" stroke-width="1.96500003" id="path_2"/><path fill="#000000" d="M85.421,100.604L123.039,100.604c1.244,0 2.245,1.293 2.245,2.9v6.246c0,1.607 -1.001,2.9 -2.245,2.9L85.421,112.65c-1.244,0 -2.245,-1.293 -2.245,-2.9v-6.246c0,-1.607 1.001,-2.9 2.245,-2.9z" stroke="#00000000" stroke-width="1.96500003" id="path_3"/><path fill="#000000" fill-rule="nonzero" d="m25.219,70.902a8.001,8.001 94.319,0 0,-0.708 11.287l7.842,9.156a8.001,8.001 94.319,1 0,12.153 -10.407l-7.842,-9.156a8.001,8.001 94.319,0 0,-11.444 -0.88z" stroke="#00000000" stroke-linecap="round" stroke-linejoin="miter" stroke-width="16" id="path_4"/><path fill="#000000" fill-rule="nonzero" d="m8.218,93.626a8.001,8.001 94.319,0 0,2.901 13.85l11.546,3.488a8.001,8.001 94.319,1 0,4.63 -15.315l-11.548,-3.49a8.001,8.001 94.319,0 0,-7.53 1.466z" stroke="#00000000" stroke-linecap="round" stroke-linejoin="miter" stroke-width="16" id="path_5"/><path fill="#000000" fill-rule="nonzero" d="m49.558,57.561a8.001,8.001 94.319,0 0,-2.261 7.839l2.86,11.699a8.001,8.001 94.319,1 0,15.543 -3.8l-2.861,-11.701a8.001,8.001 94.319,0 0,-13.281 -4.038z" stroke="#00000000" stroke-linecap="round" stroke-linejoin="miter" stroke-width="16" id="path_6"/><path fill="#000000" fill-rule="nonzero" d="m184.781,70.902a8.001,8.001 85.681,0 1,0.708 11.287l-7.842,9.156a8.001,8.001 85.681,1 1,-12.153 -10.407l7.842,-9.156a8.001,8.001 85.681,0 1,11.444 -0.88z" stroke="#00000000" stroke-linecap="round" stroke-linejoin="miter" stroke-width="16" id="path_7"/><path fill="#000000" fill-rule="nonzero" d="m201.782,93.626a8.001,8.001 85.681,0 1,-2.901 13.85l-11.546,3.488a8.001,8.001 85.681,1 1,-4.63 -15.315l11.548,-3.49a8.001,8.001 85.681,0 1,7.53 1.466z" stroke="#00000000" stroke-linecap="round" stroke-linejoin="miter" stroke-width="16" id="path_8"/><path fill="#000000" fill-rule="nonzero" d="m160.442,57.561a8.001,8.001 85.681,0 1,2.261 7.839l-2.86,11.699a8.001,8.001 85.681,1 1,-15.543 -3.8l2.861,-11.701a8.001,8.001 85.681,0 1,13.281 -4.038z" stroke="#00000000" stroke-linecap="round" stroke-linejoin="miter" stroke-width="16" id="path_9"/></svg>