<svg id="vector" xmlns="http://www.w3.org/2000/svg" width="24" height="24" viewBox="0 0 210 210"><path fill="#000000" fill-rule="nonzero" d="M55.824,36.648C50.695,36.648 45.948,39.031 42.01,42.777C38.072,46.524 34.773,51.658 32.031,57.826C26.547,70.163 23.301,86.725 23.301,105C23.301,123.274 26.547,139.837 32.031,152.174C34.773,158.342 38.072,163.476 42.01,167.223C45.948,170.97 50.695,173.352 55.824,173.352C60.953,173.352 65.703,170.97 69.641,167.223C73.579,163.476 76.877,158.342 79.619,152.174C83.657,143.09 86.469,131.704 87.678,119.041L89.432,119.041L93.351,128.994L103.035,128.84C104.148,131.54 107.161,137.869 112.582,142.597C120.1,149.156 130.255,151.148 144.562,151.148C151.64,151.148 157.676,151.153 163.127,149.685C168.578,148.218 173.375,145.174 177.551,139.459C181.588,133.934 185.671,127.311 186.445,109.59L186.699,109.664L186.672,107.363C186.656,106.059 186.671,104.745 186.672,103.502L186.674,101.226L186.445,101.293C185.67,83.573 181.588,76.95 177.551,71.426C173.375,65.711 168.578,62.665 163.127,61.197C157.676,59.73 151.641,59.736 144.563,59.736L142.855,59.736L142.855,59.807C129.498,59.974 119.779,62.007 112.582,68.285C107.046,73.115 104.023,79.613 102.969,82.209L86.532,82.209C85.043,73.056 82.7,64.757 79.619,57.826C76.877,51.658 73.579,46.524 69.641,42.777C65.703,39.031 60.953,36.648 55.824,36.648zM55.824,44.346C58.614,44.346 61.411,45.574 64.334,48.356C67.257,51.137 70.137,55.449 72.584,60.953C75.203,66.843 77.305,74.102 78.716,82.209L68.449,82.209C68.29,81.734 68.138,81.246 67.969,80.793C66.794,77.641 65.391,75.034 63.705,73.121C62.02,71.209 59.942,69.941 57.631,69.941C55.32,69.941 53.244,71.209 51.559,73.121C49.873,75.034 48.468,77.641 47.293,80.793C44.943,87.097 43.541,95.604 43.541,105C43.541,114.395 44.943,122.903 47.293,129.207C48.468,132.359 49.873,134.966 51.559,136.879C53.244,138.792 55.32,140.059 57.631,140.059C59.942,140.059 62.02,138.792 63.705,136.879C65.391,134.966 66.794,132.359 67.969,129.207C68.033,129.037 68.088,128.847 68.15,128.674L75.153,128.674L79.367,119.041L79.921,119.041C78.726,130.715 76.113,141.108 72.584,149.047C70.137,154.551 67.257,158.863 64.334,161.644C61.411,164.426 58.614,165.654 55.824,165.654C53.034,165.654 50.24,164.426 47.316,161.644C44.393,158.863 41.511,154.551 39.064,149.047C34.17,138.038 30.998,122.349 30.998,105C30.998,87.65 34.17,71.962 39.064,60.953C41.511,55.449 44.393,51.137 47.316,48.356C50.24,45.574 53.034,44.346 55.824,44.346zM57.631,73.201C58.761,73.201 59.962,73.805 61.258,75.276C62.554,76.746 63.834,79.034 64.914,81.931C64.947,82.019 64.975,82.12 65.008,82.209L55.846,82.209L55.469,82.412C55.469,82.412 55.161,82.6 54.976,82.772C54.792,82.944 54.593,83.172 54.385,83.474C53.968,84.079 53.514,84.977 53.067,86.389C52.171,89.211 51.296,94.1 51.065,102.897C50.788,113.418 51.662,119.576 52.672,123.217C53.177,125.037 53.716,126.23 54.18,127.012C54.411,127.403 54.625,127.691 54.803,127.899C54.981,128.107 55.213,128.307 55.213,128.307L55.678,128.674L64.665,128.674C63.638,131.274 62.458,133.362 61.258,134.725C59.962,136.195 58.761,136.799 57.631,136.799C56.502,136.799 55.3,136.195 54.004,134.725C52.708,133.254 51.428,130.966 50.348,128.068C48.188,122.273 46.801,114.067 46.801,105C46.801,95.933 48.188,87.727 50.348,81.931C51.428,79.034 52.708,76.746 54.004,75.276C55.3,73.805 56.502,73.201 57.631,73.201zM165.992,78.937C167.542,78.937 168.581,78.983 169.454,85.557C169.914,89.021 170.36,92.586 170.412,104.281L170.416,104.273C170.416,105.014 170.414,105.809 170.416,106.611L170.412,106.603C170.36,118.298 169.914,121.864 169.454,125.328C168.581,131.901 167.542,131.947 165.992,131.947C164.442,131.947 163.387,130.768 162.612,127.051C161.887,123.569 161.565,118.409 161.565,118.409C161.565,118.409 161.565,92.476 161.565,92.475C161.565,92.475 161.887,87.316 162.612,83.834C163.387,80.116 164.442,78.937 165.992,78.937zM57.103,85.623L102.44,85.623C102.437,85.671 102.434,85.72 102.434,85.766C102.434,86.943 102.434,88.624 102.434,90.643C102.434,94.679 102.434,100.06 102.434,105.442C102.434,115.438 102.434,124.062 102.434,125.436L95.662,125.543L91.756,115.627L77.135,115.627L72.92,125.262L57.113,125.262C56.834,124.789 56.399,123.884 55.961,122.305C55.082,119.136 54.206,113.282 54.477,102.986C54.703,94.386 55.578,89.762 56.32,87.422C56.652,86.375 56.922,85.91 57.103,85.623z" stroke="#00000000" stroke-linecap="butt" stroke-linejoin="miter" stroke-width="7.6976066" id="path_0"/></svg>