<svg id="vector" xmlns="http://www.w3.org/2000/svg" width="24" height="24" viewBox="0 0 210 210"><path fill="#000000" fill-rule="nonzero" d="M79.225,17.996C75.402,17.996 72.093,19.978 69.779,22.408C67.466,24.839 65.797,27.821 64.428,31.234C61.689,38.06 60.209,46.739 60.209,56.33L60.209,67.014A7.001,7.001 0,0 0,58.238 68.271L10.717,110.365A7.001,7.001 135,1 0,20 120.846L60.209,85.228L60.209,153.672C60.209,163.262 61.689,171.94 64.428,178.766C65.797,182.179 67.466,185.161 69.779,187.592C72.093,190.022 75.402,192.004 79.225,192.004L130.775,192.004C134.598,192.004 137.907,190.022 140.221,187.592C142.534,185.161 144.203,182.179 145.572,178.766C148.311,171.94 149.791,163.262 149.791,153.672L149.791,84.759L190.529,120.846A7.001,7.001 0,1 0,199.813 110.365L152.291,68.271A7.001,7.001 0,0 0,149.791 66.809L149.791,56.33C149.791,46.739 148.311,38.06 145.572,31.234C144.203,27.821 142.534,24.839 140.221,22.408C137.907,19.978 134.598,17.996 130.775,17.996L79.225,17.996zM79.304,30.137L130.696,30.137C130.746,30.161 130.949,30.277 131.428,30.78C132.214,31.605 133.334,33.337 134.304,35.756C136.245,40.593 137.651,48.047 137.651,56.33L137.651,153.672C137.651,161.955 136.245,169.407 134.304,174.244C133.334,176.663 132.214,178.395 131.428,179.221C130.949,179.723 130.746,179.84 130.696,179.863L79.304,179.863C79.254,179.84 79.051,179.723 78.572,179.221C77.786,178.395 76.666,176.663 75.695,174.244C73.754,169.407 72.35,161.955 72.35,153.672L72.35,56.33C72.35,48.047 73.754,40.593 75.695,35.756C76.666,33.337 77.786,31.605 78.572,30.78C79.051,30.277 79.254,30.161 79.304,30.137z" stroke="#00000000" stroke-linecap="round" stroke-linejoin="round" stroke-width="12.14075" id="path_0"/><path fill="#000000" fill-rule="nonzero" d="m104.965,59.348c-16.98,0 -30.097,5.828 -30.097,5.828l9.153,25.912c0,0 8.439,-1.862 20.944,-1.862 12.505,0 20.944,1.862 20.944,1.862l9.153,-25.912c0,0 -13.116,-5.828 -30.097,-5.828z" stroke="#00000000" stroke-linecap="round" stroke-linejoin="round" stroke-width="9.4075489" id="path_1"/><path fill="#000000" fill-rule="nonzero" d="m104.965,165.782c-16.98,0 -30.097,-1.691 -30.097,-1.691l9.153,-16.085c0,0 8.439,0.513 20.944,0.513 12.505,0 20.944,-0.513 20.944,-0.513l9.153,16.085c0,0 -13.116,1.691 -30.097,1.691z" stroke="#00000000" stroke-linecap="round" stroke-linejoin="round" stroke-width="7.41186857" id="path_2"/></svg>