<svg id="vector" xmlns="http://www.w3.org/2000/svg" width="24" height="24" viewBox="0 0 210 210"><path fill="#000000" fill-rule="nonzero" d="M143.521,33.829C136.443,33.829 129.365,35.7 123.057,39.443C110.44,46.928 102.762,60.678 102.762,75.466L102.762,90.792L37.964,90.792C30.102,90.792 23.773,97.122 23.773,104.983L23.773,161.982C23.773,169.844 30.102,176.173 37.964,176.173L133.377,176.173C141.239,176.173 147.568,169.844 147.568,161.982L147.568,104.983C147.568,97.122 141.239,90.792 133.377,90.792L119.495,90.792L119.495,75.466C119.495,66.469 124.163,58.24 131.592,53.832C139.022,49.424 148.02,49.424 155.449,53.832C162.879,58.24 167.548,66.469 167.548,75.466L167.548,97.379A8.367,8.367 0,1 0,184.28 97.379L184.28,75.466C184.28,60.678 176.602,46.928 163.986,39.443C157.678,35.7 150.599,33.829 143.521,33.829z" stroke="#00000000" stroke-linecap="round" stroke-linejoin="round" stroke-width="2.7767572" id="path_0"/></svg>