<svg id="vector" xmlns="http://www.w3.org/2000/svg" width="24" height="24" viewBox="0 0 210 210"><path fill="#000000" fill-rule="nonzero" d="m79.225,17.996c-3.823,0 -7.132,1.981 -9.445,4.412 -2.314,2.431 -3.982,5.413 -5.352,8.826 -2.739,6.826 -4.219,15.505 -4.219,25.096l0,10.684 0,18.214 0,68.444c0,9.59 1.48,18.268 4.219,25.094 1.369,3.413 3.038,6.395 5.352,8.826 2.314,2.431 5.623,4.412 9.445,4.412l51.551,0c3.823,0 7.132,-1.981 9.445,-4.412 2.314,-2.431 3.982,-5.413 5.352,-8.826 2.739,-6.826 4.218,-15.504 4.218,-25.094L149.791,84.759c0,-17.949 0,0 0,-17.949l0,-10.479c0,-9.59 -1.479,-18.269 -4.218,-25.096 -1.369,-3.413 -3.038,-6.395 -5.352,-8.826 -2.314,-2.431 -5.623,-4.412 -9.445,-4.412zM79.304,30.137l51.392,0c0.05,0.024 0.253,0.14 0.732,0.643 0.786,0.826 1.906,2.558 2.877,4.976 1.941,4.837 3.346,12.291 3.346,20.574l0,97.342c0,8.283 -1.405,15.735 -3.346,20.572 -0.97,2.418 -2.091,4.151 -2.877,4.976 -0.478,0.503 -0.682,0.619 -0.732,0.643L79.304,179.863c-0.05,-0.024 -0.253,-0.14 -0.732,-0.643 -0.786,-0.826 -1.907,-2.558 -2.877,-4.976 -1.941,-4.837 -3.346,-12.289 -3.346,-20.572L72.35,56.33c0,-8.283 1.405,-15.737 3.346,-20.574 0.97,-2.418 2.091,-4.151 2.877,-4.976 0.478,-0.503 0.682,-0.619 0.732,-0.643z" stroke="#00000000" stroke-linecap="round" stroke-linejoin="round" stroke-width="12.14075" id="path_0"/><path fill="#000000" fill-rule="nonzero" d="m104.965,59.348c-16.98,0 -30.097,5.828 -30.097,5.828l9.153,25.912c0,0 8.439,-1.862 20.944,-1.862 12.505,0 20.944,1.862 20.944,1.862l9.153,-25.912c0,0 -13.116,-5.828 -30.097,-5.828z" stroke="#00000000" stroke-linecap="round" stroke-linejoin="round" stroke-width="9.4075489" id="path_1"/><path fill="#000000" fill-rule="nonzero" d="m104.965,165.782c-16.98,0 -30.097,-1.691 -30.097,-1.691l9.153,-16.085c0,0 8.439,0.513 20.944,0.513 12.505,0 20.944,-0.513 20.944,-0.513l9.153,16.085c0,0 -13.116,1.691 -30.097,1.691z" stroke="#00000000" stroke-linecap="round" stroke-linejoin="round" stroke-width="7.41186857" id="path_2"/></svg>