<svg id="vector" xmlns="http://www.w3.org/2000/svg" width="24" height="24" viewBox="0 0 210 210"><path fill="#000000" fill-rule="nonzero" d="m105.043,33.827c-7.078,0 -14.156,1.871 -20.464,5.614 -12.616,7.485 -20.295,21.234 -20.295,36.023L64.284,90.793l-6.991,0c-7.862,0 -14.191,6.328 -14.191,14.19l0,56.999c0,7.862 6.329,14.191 14.191,14.191l95.413,0c7.862,0 14.191,-6.329 14.191,-14.191l0,-56.999c0,-7.862 -6.329,-14.19 -14.191,-14.19L145.803,90.793l0,-15.33c0,-14.788 -7.679,-28.538 -20.295,-36.023 -6.308,-3.743 -13.387,-5.614 -20.465,-5.614zM105.043,50.524c4.107,0 8.214,1.101 11.929,3.305 7.429,4.408 12.098,12.637 12.098,21.634L129.07,90.793L81.017,90.793l0,-15.33c0,-8.997 4.669,-17.226 12.098,-21.634 3.715,-2.204 7.821,-3.305 11.928,-3.305z" stroke="#00000000" stroke-linecap="round" stroke-linejoin="round" stroke-width="2.776743" id="path_0"/></svg>