<svg id="vector" xmlns="http://www.w3.org/2000/svg" width="24" height="24" viewBox="0 0 48 48"><path fill="?android:colorPrimary" d="M24,43.95q-7,-1.75 -11.5,-8.125T8,21.85L8,9.95l16,-6 16,6v11.9q0,7.6 -4.5,13.975T24,43.95ZM24,40.85q5.75,-1.9 9.375,-7.175T37,21.85v-9.8l-13,-4.9 -13,4.9v9.8q0,6.55 3.625,11.825Q18.25,38.95 24,40.85ZM24,24Z" id="path_0"/><path fill="?android:colorPrimary" d="m24,37.291c3.024,-0.999 5.489,-2.886 7.395,-5.66 1.906,-2.774 2.859,-5.883 2.859,-9.327V14.574L24,10.709 13.746,14.574v7.73c0,3.444 0.953,6.554 2.859,9.327 1.906,2.774 4.371,4.66 7.395,5.66z" stroke-width="0.78878748" id="path_1"/></svg>