<svg id="vector" xmlns="http://www.w3.org/2000/svg" width="24" height="24" viewBox="0 0 210 210"><path fill="#000000" fill-rule="nonzero" d="m70.584,89.922c-18.394,0 -32.256,17.738 -32.256,38.461v28.014h10v-28.014c0,-16.352 10.451,-28.461 22.256,-28.461h68.832c11.804,0 22.256,12.109 22.256,28.461v28.014h10v-28.014c0,-20.723 -13.862,-38.461 -32.256,-38.461z" stroke="#00000000" stroke-linecap="butt" stroke-linejoin="miter" stroke-width="10" id="path_0"/><path fill="#000000" d="m53.18,128.584c-0.217,-12.094 5.303,-23.282 12.476,-23.547 10.421,-0.384 11.135,3.205 11.135,3.205 -12.106,3.556 -16.205,7.93 -23.611,20.342z" stroke="#00000000" stroke-linecap="butt" stroke-linejoin="miter" stroke-width="1.96500003" id="path_1"/><path fill="#000000" d="m157.671,128.282c0.217,-12.094 -5.303,-23.282 -12.476,-23.547 -10.421,-0.384 -11.135,3.205 -11.135,3.205 12.106,3.556 16.205,7.93 23.611,20.342z" stroke="#00000000" stroke-linecap="butt" stroke-linejoin="miter" stroke-width="1.96500003" id="path_2"/><path fill="#000000" d="m85.847,102.389h37.618c1.244,0 2.245,1.293 2.245,2.9v6.246c0,1.607 -1.001,2.9 -2.245,2.9L85.847,114.435c-1.244,0 -2.245,-1.293 -2.245,-2.9v-6.246c0,-1.607 1.001,-2.9 2.245,-2.9z" stroke="#00000000" stroke-width="1.96500003" id="path_3"/><path fill="#000000" d="M72.236,53.603A67.943,72.64 0,0 0,4.294 126.243L30.941,126.243a41.295,44.15 0,0 1,41.295 -44.15z" stroke-width="8.91903973" id="path_4"/><path fill="#000000" d="m137.764,53.603a67.943,72.64 0,0 1,67.943 72.64L179.059,126.243a41.295,44.15 0,0 0,-41.295 -44.15z" stroke-width="8.91903973" id="path_5"/></svg>